<?xml version="1.0" encoding="UTF-8" standalone="no"?>
<!-- Created with Inkscape (http://www.inkscape.org/) -->

<svg
   width="1024"
   height="1024"
   viewBox="0 0 270.93333 270.93333"
   version="1.1"
   id="svg1"
   inkscape:version="1.4 (e7c3feb1, 2024-10-09)"
   sodipodi:docname="icon.svg"
   xml:space="preserve"
   inkscape:export-filename="icon.png"
   inkscape:export-xdpi="96"
   inkscape:export-ydpi="96"
   xmlns:inkscape="http://www.inkscape.org/namespaces/inkscape"
   xmlns:sodipodi="http://sodipodi.sourceforge.net/DTD/sodipodi-0.dtd"
   xmlns="http://www.w3.org/2000/svg"
   xmlns:svg="http://www.w3.org/2000/svg"
   xmlns:bx="https://boxy-svg.com"><sodipodi:namedview
     id="namedview1"
     pagecolor="#505050"
     bordercolor="#eeeeee"
     borderopacity="1"
     inkscape:showpageshadow="0"
     inkscape:pageopacity="0"
     inkscape:pagecheckerboard="true"
     inkscape:deskcolor="#505050"
     inkscape:document-units="mm"
     inkscape:zoom="0.8509926"
     inkscape:cx="460.63855"
     inkscape:cy="214.45545"
     inkscape:window-width="2224"
     inkscape:window-height="1186"
     inkscape:window-x="0"
     inkscape:window-y="25"
     inkscape:window-maximized="0"
     inkscape:current-layer="svg1" /><defs
     id="defs1"><filter
       id="shadow"
       bx:pinned="true"
       x="0"
       y="0"
       width="1"
       height="1"><title
         id="title1">Drop Shadow</title><feDropShadow
         result="drop-shadow-0"
         in="SourceGraphic"
         style="flood-opacity: 0.3;"
         stdDeviation="10"
         dx="0"
         dy="10" /></filter><clipPath
       id="clip-0"><path
         style="fill:#ffffff;stroke-width:3px"
         d="M 100,724 V 300 C 100,185.001 170,99.995 300.026,100 L 724,99.995 C 854,100 924,185.001 924,300 v 424 c 0,115.001 -70,199.995 -200,200 H 300.026 C 170,924 100,839.001 100,724 Z"
         id="path2-2"><title
           id="title2">Icon Mask</title></path></clipPath></defs><g
     id="g56"
     mask="none"><rect
       style="display:inline;fill:#dcb51a;fill-opacity:1;stroke:none;stroke-width:2.10013;stroke-linecap:round;stroke-linejoin:round;stroke-miterlimit:100;paint-order:fill markers stroke"
       id="rect1"
       width="270.93332"
       height="270.93332"
       x="0"
       y="0"
       inkscape:label="background"
       mask="none" /><circle
       style="display:inline;fill:#000000;stroke-width:7.9375;stroke-linecap:round;stroke-linejoin:round;stroke-miterlimit:100;paint-order:fill markers stroke"
       id="path1"
       cx="79.904137"
       cy="88.996902"
       r="21.105368" /><circle
       style="display:inline;fill:#000000;stroke-width:7.9375;stroke-linecap:round;stroke-linejoin:round;stroke-miterlimit:100;paint-order:fill markers stroke"
       id="circle1"
       cx="191.02919"
       cy="88.996902"
       r="21.105368" /><path
       style="display:inline;fill:#000000;stroke-width:7.9375;stroke-linecap:round;stroke-linejoin:round;stroke-miterlimit:100;paint-order:fill markers stroke"
       id="path2"
       sodipodi:type="arc"
       sodipodi:cx="135.46666"
       sodipodi:cy="163.90894"
       sodipodi:rx="39.13287"
       sodipodi:ry="39.13287"
       sodipodi:start="0"
       sodipodi:end="3.1415927"
       sodipodi:arc-type="slice"
       d="m 174.59953,163.90894 a 39.13287,39.13287 0 0 1 -19.56644,33.89006 39.13287,39.13287 0 0 1 -39.13287,-1e-5 39.13287,39.13287 0 0 1 -19.56643,-33.89005 h 39.13287 z" /></g><path
     style="display:inline;fill:#ffffff;fill-opacity:1;stroke:none;stroke-width:0.79375px"
     d="M 26.855208,191.95653 V 79.773198 c 0,-30.426819 18.520834,-52.91799 52.923546,-52.916667 l 112.176456,-0.0013 c 34.39583,0.0013 52.91666,22.491171 52.91666,52.91799 V 191.95653 c 0,30.42735 -18.52083,52.91534 -52.91666,52.91667 H 79.778754 c -34.402712,0 -52.923546,-22.48932 -52.923546,-52.91667 z"
     id="path57"
     inkscape:label="mask"><title
       id="title57">Icon Grid Bounding Box</title></path><g
     inkscape:groupmode="layer"
     id="g53"
     inkscape:label="guide"
     style="display:none"
     sodipodi:insensitive="true"><g
       style="filter:url(#shadow)"
       id="g43"
       transform="matrix(0.26458333,0,0,0.26458333,0.39687499,0.396875)"><title
         id="title40">App Icon (w/ Shadow)</title><g
         clip-path="url(#clip-0)"
         id="g42"><title
           id="title41">Background (Masked)</title><path
           style="fill:#ffffff;stroke-width:3px"
           d="M 100,724 V 300 C 100,185.001 170,99.995 300.026,100 L 724,99.995 C 854,100 924,185.001 924,300 v 424 c 0,115.001 -70,199.995 -200,200 H 300.026 C 170,924 100,839.001 100,724 Z"
           id="path42"><title
             id="title42">Icon Shape</title></path></g><rect
         x="683.90002"
         y="337.289"
         width="619.79901"
         height="80.511002"
         style="fill:#aebbbb"
         transform="rotate(-64.5042,804.46409,588.45425)"
         id="rect42" /></g><g
       id="g52"
       transform="matrix(0.26458333,0,0,0.26458333,0.39687499,0.396875)"><title
         id="title43">App Icon Guides</title><g
         id="g51"><title
           id="title44">App Icon Guides</title><path
           style="fill:none;stroke:#919191;stroke-width:3px"
           d="m 0,739.001 v -454 C 0,135.001 112,0 284.999,0 H 739.001 C 912,0 1024,135.001 1024,285.001 v 454 C 1024,889.001 912,1024 739.001,1024 H 284.999 C 112,1024 0,889.001 0,739.001 Z"
           id="path45"><title
             id="title45">Outer Bounding Box</title></path><path
           style="fill:none;stroke:#919191;stroke-width:3px"
           d="m 50,739.001 v -454 C 50,162 140,50 284.999,50 H 739.001 C 884.001,50 974,162 974,285.001 v 454 C 974,862 884.001,974 739.001,974 H 284.999 C 140,974 50,862 50,739.001 Z"
           id="path46"><title
             id="title46">Inner Bounding Box</title></path><path
           style="fill:none;stroke:#ff0000;stroke-width:3px"
           d="m 100,724.005 v -424 C 100,185.006 170,100 300.026,100.005 L 724,100 c 130,0.005 200,85.006 200,200.005 v 424 c 0,115.001 -70,199.995 -200,200 H 300.026 C 170,924.005 100,839.006 100,724.005 Z"
           id="path47"><title
             id="title47">Icon Grid Bounding Box</title></path><path
           style="fill:none;stroke:#ff0000"
           d="M 154.017,870.001 H 870.001 V 154.014 H 154.017 Z m 0,0 715.984,-715.987 z M 100,511.995 h 824 z m 0,157.365 H 924 Z M 924,354.631 H 100 Z M 669.365,99.995 v 824 z m -314.73,824 v -824 z M 512,99.995 v 824 z m -357.983,54.019 715.984,715.987 z"
           id="path48"><title
             id="title48">Icon Grid</title></path><circle
           style="fill:none"
           cx="512"
           cy="511.995"
           r="157.397"
           id="circle49"><title
             id="title49">Grid Circle 1</title></circle><circle
           style="fill:none"
           cx="512"
           cy="511.995"
           r="222.577"
           id="circle50"><title
             id="title50">Grid Circle 2</title></circle><circle
           style="fill:none"
           cx="512"
           cy="511.995"
           r="358.00101"
           id="circle51"><title
             id="title51">Grid Circle 3</title></circle></g></g></g></svg>
